<?xml version="1.0" standalone="no"?><!DOCTYPE svg PUBLIC "-//W3C//DTD SVG 1.1//EN" "http://www.w3.org/Graphics/SVG/1.1/DTD/svg11.dtd"><svg t="1595491853131" class="icon" viewBox="0 0 1024 1024" version="1.1" xmlns="http://www.w3.org/2000/svg" p-id="1127" xmlns:xlink="http://www.w3.org/1999/xlink" width="200" height="200"><defs><style type="text/css"></style></defs><path d="M983.576177 1024l-63.127133 0c-12.158728-162.063738-115.90268-297.880063-258.684394-354.91906-45.389075 22.159413-96.04167 34.932218-149.764649 34.932218s-104.375574-12.75526-149.764649-34.932218c-142.781715 57.056542-246.525667 192.855322-258.684394 354.91906l-63.127133 0c11.22884-173.082037 112.955109-320.776369 257.438695-395.518333-80.58447-64.478103-132.500308-164.221781-132.500308-276.475087 0-194.434377 155.203619-352.006579 346.63779-352.006579 191.451717 0 346.63779 157.572202 346.63779 352.006579 0 112.253307-51.898293 211.996984-132.500308 276.475087C870.638613 703.241176 972.312247 850.935508 983.576177 1024L983.576177 1024zM795.615928 352.006579c0-159.045987-126.991159-288.002193-283.615928-288.002193-156.642314 0-283.615928 128.956206-283.615928 288.002193s126.991159 287.984648 283.615928 287.984648C668.624769 639.991227 795.615928 511.052567 795.615928 352.006579L795.615928 352.006579z" p-id="1128"></path></svg>