<?xml version="1.0" standalone="no"?><!DOCTYPE svg PUBLIC "-//W3C//DTD SVG 1.1//EN" "http://www.w3.org/Graphics/SVG/1.1/DTD/svg11.dtd"><svg t="1595492439015" class="icon" viewBox="0 0 1257 1024" version="1.1" xmlns="http://www.w3.org/2000/svg" p-id="5433" xmlns:xlink="http://www.w3.org/1999/xlink" width="245.5078125" height="200"><defs><style type="text/css"></style></defs><path d="M285.616393 511.635001c17.033286-5.671523 28.75069-20.814302 28.75069-37.529384 0-16.190981-10.762791-30.716069-27.384284-37.005283-50.426015-22.742245-82.845413-72.662877-82.845413-127.262983 0-62.910852 53.720365-113.505328 107.571755-131.73656 9.602281-28.582229 23.846601-55.27395 42.321165-79.363884 1.684611-2.807685 3.518965-5.708959 5.446908-8.647668-0.786152-0.074872-1.572303-0.131025-2.377173-0.131025-122.059407 0-221.357852 98.643318-221.357852 219.879138 0 54.431645 20.458662 106.823039 57.576252 147.478312l4.286398 4.71691-5.671523 2.919992c-118.3907 60.926755-191.933317 181.507449-191.933317 314.647851l0 69.51827c0 22.105837 18.100207 40.075018 40.355786 40.075018l76.219277 0c0.280768-25.662237 2.882556-44.155519 8.01126-69.836474l-56.191127 0 0-39.738096c0-125.746833 85.671815-235.040635 208.348913-265.812858L285.616393 511.635001z" p-id="5434"></path><path d="M1256.532436 849.099969l0-69.51827c0.074872-133.15912-73.449028-253.721096-191.858446-314.647851l-5.671523-2.919992 4.286398-4.71691c37.136308-40.655273 57.576252-93.027949 57.576252-147.478312 0-121.254538-99.298444-219.916574-221.357852-219.916574-0.80487 0-1.591021 0.056154-2.395891 0.131025 1.965379 2.994864 3.893323 6.008445 5.746394 9.07818 18.212514 23.67814 32.419398 50.351143 42.002961 78.933372 56.247281 18.942512 115.09635 71.015702 115.09635 131.73656 0 54.637542-32.40068 104.539456-82.564644 127.150675-16.920979 6.401521-27.68377 20.926609-27.68377 37.136308 0 16.715082 11.717404 31.857861 29.143766 37.641691l8.423054 2.002815c122.714534 30.790941 208.405067 140.122178 208.405067 265.869011l0 39.738096-63.753158 0c5.128704 25.568648 7.711774 44.043212 8.01126 69.836474l76.219277 0C1238.413512 889.174987 1256.532436 871.205805 1256.532436 849.099969z" p-id="5435"></path><path d="M221.339134 1024l814.396988 0c22.25558 0 40.355786-17.987899 40.355786-40.093736l0-89.864624c0-182.667958-110.73508-344.65264-282.116146-412.692197l-7.898953-3.144607 6.701007-5.241011c65.044693-50.762937 102.349462-126.645292 102.349462-208.161734 0-146.018316-119.588645-264.802091-266.580291-264.802091s-266.580291 118.783775-266.580291 264.802091c0 81.53516 37.304769 157.398797 102.349462 208.161734l6.701007 5.241011-7.91767 3.144607c-171.381066 68.020838-282.116146 230.024238-282.116146 412.692197l0 89.864624C180.983348 1006.012101 199.083554 1024 221.339134 1024zM427.292156 264.446451c0-110.248414 90.276418-199.944577 201.25483-199.944577s201.25483 89.696163 201.25483 199.944577-90.276418 199.963295-201.25483 199.963295S427.292156 374.713583 427.292156 264.446451zM239.233444 907.387501c0-213.253002 174.656698-386.767909 389.332261-386.767909 214.619409 0 389.219954 173.496189 389.219954 386.767909l0 52.616009L239.214726 960.00351l0-52.616009L239.233444 907.387501z" p-id="5436"></path></svg>