<?xml version="1.0" standalone="no"?><!DOCTYPE svg PUBLIC "-//W3C//DTD SVG 1.1//EN" "http://www.w3.org/Graphics/SVG/1.1/DTD/svg11.dtd"><svg t="1595492475605" class="icon" viewBox="0 0 1085 1024" version="1.1" xmlns="http://www.w3.org/2000/svg" p-id="6153" xmlns:xlink="http://www.w3.org/1999/xlink" width="211.9140625" height="200"><defs><style type="text/css"></style></defs><path d="M704.822125 1023.999982l-0.059186 0c-19.753486 0-38.915107-8.13814-51.299876-21.780622-16.868145-18.540163-70.283938-66.614376-114.081928-66.614376-43.472465 0-97.776055 48.384942-113.327301 65.312274-12.34038 13.43533-31.398424 21.469893-50.929961 21.469893-9.307073 0-18.081468-1.790391-26.086438-5.341579l-1.390882-0.606661-133.051193-74.382601-1.302102-0.91739c-24.207268-16.956925-33.425561-50.116147-21.410707-77.134772 0.08878-0.177559 12.2516-28.305931 12.2516-53.904081 0-77.741433-63.240747-140.996977-140.996977-140.996977l-4.705325 0c-0.266339 0-0.577068 0-0.577068 0-22.53525 0-40.675904-19.783079-46.476179-50.382486-0.458695-2.456239-11.3786-60.51817-11.3786-106.269314s10.919904-103.842668 11.3786-106.298907c5.859461-30.998916 24.355234-50.900368 47.053247-50.352893l4.705325 0c77.741433 0 140.996977-63.285137 140.996977-140.996977 0-25.59815-12.16282-53.726522-12.281193-53.992861-11.985261-27.003829-2.737374-60.148254 21.603063-77.045992l1.390882-0.946984 140.360723-77.105179 1.450069-0.606661c7.916191-3.373629 16.557416-5.104833 25.760913-5.104833 19.501943 0 38.530395 7.857004 51.018741 20.996402 16.631399 17.386027 69.100208 62.648883 111.640486 62.648883 42.111176 0 94.284053-44.345466 110.841469-61.405967 12.42916-12.887855 31.368831-20.626486 50.663622-20.626486 9.336666 0 18.140654 1.790391 26.204811 5.282393l1.390882 0.606661 135.596212 75.314788 1.331696 0.946984c24.266454 16.927332 33.484748 50.086554 21.469893 77.105179-0.059186 0.207153-12.2516 28.276338-12.2516 53.933674 0 77.71184 63.211154 140.996977 140.996977 140.996977l4.734918 0c22.564843-0.547475 41.164193 19.353977 47.023654 50.352893 0.488288 2.456239 11.349006 60.547763 11.349006 106.298907 0 45.736348-10.860718 103.813075-11.349006 106.269314-5.859461 31.028509-24.444014 50.841181-47.053247 50.382486l-4.705325 0c-77.785823 0-140.996977 63.240747-140.996977 140.996977 0 25.59815 12.16282 53.696928 12.2516 53.963268 12.014854 27.003829 2.781764 60.148254-21.543877 77.016399l-1.331696 0.976577-137.904484 76.202585-1.390882 0.636255C722.504084 1022.298371 713.892452 1023.999982 704.822125 1023.999982L704.822125 1023.999982zM700.545902 959.087217c0.606661 0.399509 2.367459 1.09495 4.276223 1.09495 0 0 0.08878 0 0.147966-0.029593l128.804564-71.201328c-3.092493-7.191157-17.356433-42.288736-17.356433-78.836383 0-109.332214 86.160709-198.970129 194.146431-204.578047 1.583238-8.552445 9.987717-56.819015 9.987717-93.07073 0-36.192529-8.404479-84.488692-9.987717-93.07073-107.985722-5.607918-194.146431-95.21624-194.146431-204.578047 0-36.621631 14.26394-71.748803 17.356433-78.910366l-126.747834-70.431904-0.488288 0c-2.1899 0-4.187443 0.784221-4.853291 1.242916-2.086323 2.1899-20.508113 20.833639-46.905281 39.403395-39.077869 27.477321-75.951043 41.386142-109.746519 41.386142-34.091409 0-71.349294-14.204754-110.66391-42.229549-26.545134-18.895282-44.98172-37.89414-47.142026-40.128429-0.665848-0.429102-2.737374-1.272509-4.853291-1.272509l-0.488288 0-131.231209 72.103922c3.122086 7.339123 17.297247 42.347922 17.297247 78.836383 0 109.361807-86.11632 198.970129-194.087245 204.578047-1.583238 8.552445-10.002514 56.819015-10.002514 93.07073 0 36.192529 8.434073 84.488692 10.002514 93.07073 107.956128 5.607918 194.087245 95.21624 194.087245 204.578047 0 36.71041-14.323127 71.867176-17.356433 78.925163l124.247205 69.470124c0 0 0.118373 0 0.236746 0 1.819984 0 3.551188-0.665848 4.128257-1.065357 2.367459-2.485832 20.878029-22.120945 47.630315-41.741261 39.86209-29.178932 77.652654-43.990347 112.513487-43.990347 35.156766 0 73.317245 15.077754 113.356894 44.863347C679.608687 936.522373 698.237629 956.571791 700.545902 959.087217L700.545902 959.087217z" p-id="6154"></path><path d="M539.825032 699.510139c-103.502346 0-187.769089-84.237149-187.769089-187.769089s84.266742-187.739495 187.769089-187.739495 187.769089 84.207556 187.769089 187.739495C727.608917 615.27299 643.327378 699.510139 539.825032 699.510139L539.825032 699.510139zM539.825032 387.848964c-68.315988 0-123.892087 55.576099-123.892087 123.892087 0 68.345581 55.576099 123.92168 123.892087 123.92168s123.892087-55.576099 123.892087-123.92168C663.717119 443.410266 608.14102 387.848964 539.825032 387.848964L539.825032 387.848964z" p-id="6155"></path></svg>