<?xml version="1.0" standalone="no"?><!DOCTYPE svg PUBLIC "-//W3C//DTD SVG 1.1//EN" "http://www.w3.org/Graphics/SVG/1.1/DTD/svg11.dtd"><svg t="1595492178870" class="icon" viewBox="0 0 1024 1024" version="1.1" xmlns="http://www.w3.org/2000/svg" p-id="1250" xmlns:xlink="http://www.w3.org/1999/xlink" width="200" height="200"><defs><style type="text/css"></style></defs><path d="M806.71452 565.661151c28.438331-14.182487 54.455859-32.71753 77.367911-55.140531 57.61024-56.509874 89.349667-131.652602 89.349667-211.612484 0-79.93543-31.739427-155.078157-89.349667-211.563579-57.512429-56.338706-133.877785-87.344557-215.011391-87.344557-81.158058 0-157.523414 31.00585-215.035843 87.369009-7.702557 7.555842-15.136137 15.698546-22.178475 24.256943-11.052559-1.467154-22.251833-2.200731-33.304391-2.200731-137.056618 0-248.560308 109.547484-248.560308 244.207751 0 82.087256 41.39819 157.914655 110.94128 203.420875-50.665711 23.352198-95.756239 58.490532-130.601141 101.747117-25.308403 31.445997-45.017169 66.535425-58.588342 104.314636-14.084677 39.075196-21.17592 80.179956-21.17592 122.165007 0 16.089787 13.082121 29.196361 29.171908 29.196361s29.220813-13.106574 29.220813-29.196361c0-139.990926 94.558063-260.737684 230.954462-294.237696 3.790147 0.880292 7.580295 1.711679 11.468252 2.469709 15.429568 2.885402 31.299281 4.352556 47.144542 4.352556 16.089787 0 29.196361-13.057669 29.196361-29.147456 0-16.114239-13.106574-29.220813-29.196361-29.220813-12.275187 0-24.477016-1.124818-36.360962-3.398906-89.105141-16.823364-153.806624-93.555508-153.806624-182.440576 0-101.331423 83.627767-184.127803 186.9643-185.790577-20.368985 40.884686-30.663515 84.948205-30.663515 131.090193 0 79.93543 31.739427 155.078157 89.374119 211.612484 26.408769 25.870812 56.803305 46.484323 90.401127 61.278124-65.752943 21.860592-124.29238 58.099291-173.979989 107.811352-84.190176 84.190176-130.527784 196.085106-130.527784 315.120185 0 16.114239 13.106574 29.220813 29.196361 29.220813 16.089787 0 29.171908-13.106574 29.171908-29.220813 0-213.544237 173.735463-387.2797 387.2797-387.2797 83.970103 0 163.807723 26.408769 230.905557 76.365356 4.86606 3.618979 10.78358 5.526279 17.116794 5.526279 9.487595 0 18.363875-4.303651 23.743439-11.517157 4.67044-6.235404 6.626645-13.937961 5.477374-21.664971-1.124818-7.72701-5.208396-14.549275-11.468252-19.195262C907.483534 604.296201 858.847386 580.308236 806.71452 565.661151zM476.482651 150.187645l0.122263-0.880292c47.095637-57.781407 117.201137-90.914631 192.466127-90.914631 135.613917 0 245.968336 107.909163 245.968336 240.539867 0 132.655157-110.354419 240.539867-245.968336 240.539867s-245.968336-107.909163-245.968336-240.539867c0-45.555126 13.131027-89.863171 38.488335-129.036177C469.122429 165.861738 474.501993 158.843852 476.482651 150.187645z" p-id="1251"></path></svg>